<?xml version="1.0"?>
<svg xmlns="http://www.w3.org/2000/svg" viewBox="0 0 64 64" width="512" height="512"><g id="Outlines"><g><circle cx="34" cy="33" r="1"/><circle cx="38" cy="33" r="1"/><circle cx="42" cy="33" r="1"/><path d="M30,33a1,1,0,0,0-1-1H23a1,1,0,0,0,0,2h6A1,1,0,0,0,30,33Z"/><circle cx="34" cy="25" r="1"/><circle cx="38" cy="25" r="1"/><circle cx="42" cy="25" r="1"/><path d="M29,24H23a1,1,0,0,0,0,2h6a1,1,0,0,0,0-2Z"/><circle cx="34" cy="17" r="1"/><circle cx="38" cy="17" r="1"/><circle cx="42" cy="17" r="1"/><path d="M23,16a1,1,0,0,0,0,2h6a1,1,0,0,0,0-2Z"/><path d="M40.778,48.293a1,1,0,0,0-1.414,1.414l1.607,1.606-5.658,5.658-2.656-2.657a1,1,0,0,0-1.176-.176,15.882,15.882,0,0,1-2.775,1.156A1,1,0,0,0,28,56.25V60H20V56.25a1,1,0,0,0-.706-.956,15.882,15.882,0,0,1-2.775-1.156,1,1,0,0,0-1.176.176l-2.656,2.657L7.029,51.313l2.657-2.655a1,1,0,0,0,.176-1.176,15.975,15.975,0,0,1-1.156-2.776A1,1,0,0,0,7.75,44H4V36H7.75a1,1,0,0,0,.956-.706,15.975,15.975,0,0,1,1.156-2.776,1,1,0,0,0-.176-1.176L7.029,28.687l5.658-5.658,1.606,1.607a1,1,0,1,0,1.414-1.414l-2.313-2.314a1,1,0,0,0-1.415,0L4.908,27.979a1,1,0,0,0,0,1.415L7.76,32.245A17.941,17.941,0,0,0,7.028,34H3a1,1,0,0,0-1,1V45a1,1,0,0,0,1,1H7.028a17.941,17.941,0,0,0,.732,1.755L4.908,50.606a1,1,0,0,0,0,1.415l7.071,7.071a1,1,0,0,0,1.415,0l2.851-2.852A17.982,17.982,0,0,0,18,56.972V61a1,1,0,0,0,1,1H29a1,1,0,0,0,1-1V56.972a17.982,17.982,0,0,0,1.755-.732l2.851,2.852a1,1,0,0,0,1.415,0l7.071-7.071a1,1,0,0,0,0-1.415Z"/><path d="M14.952,40.005a1,1,0,0,0-.9,1.094,10.958,10.958,0,0,0,15.69,8.8,1,1,0,1,0-.867-1.8A8.874,8.874,0,0,1,25,49a8.964,8.964,0,0,1-8.954-8.1A1,1,0,0,0,14.952,40.005Z"/><path d="M61,12H58.246c-.055-.139-.112-.277-.174-.416l1.949-1.948a1,1,0,0,0,0-1.414L55.778,3.979a1,1,0,0,0-1.414,0L52.416,5.928c-.139-.061-.277-.119-.416-.175V3a1,1,0,0,0-1-1H45a1,1,0,0,0-1,1V5.753c-.139.056-.277.114-.416.175L41.636,3.979a1,1,0,0,0-1.414,0L35.979,8.222a1,1,0,1,0,1.415,1.414L40.929,6.1l1.743,1.743a1,1,0,0,0,1.17.179,8.953,8.953,0,0,1,1.459-.61,1,1,0,0,0,.7-.954V4h4V6.459a1,1,0,0,0,.7.954,8.953,8.953,0,0,1,1.459.61,1,1,0,0,0,1.17-.179L55.071,6.1,57.9,8.929l-1.743,1.743a1,1,0,0,0-.179,1.17,9.078,9.078,0,0,1,.61,1.458,1,1,0,0,0,.954.7H60v4H57.541a1,1,0,0,0-.954.7,9.078,9.078,0,0,1-.61,1.458,1,1,0,0,0,.179,1.17L57.9,23.071,55.071,25.9l-1.743-1.743a1,1,0,0,0-1.17-.179,8.953,8.953,0,0,1-1.459.61,1,1,0,0,0-.7.954V29a1,1,0,0,0,2,0V26.247c.139-.056.277-.114.416-.175l1.948,1.949a1,1,0,0,0,1.414,0L56,27.8V40.184A3,3,0,0,0,54.184,42H44V41a1,1,0,0,0-1-1H36V38H47a1,1,0,0,0,1-1V13a1,1,0,0,0-1-1H40a1,1,0,0,0,0,2h6v6H20V14H36a1,1,0,0,0,0-2H19a1,1,0,0,0-1,1V37a1,1,0,0,0,1,1h4a1,1,0,0,0,0-2H20V30H46v6H27a1,1,0,0,0,0,2h3v2H24a1,1,0,0,0-1,1v1H20a1,1,0,0,0,0,2h3v1a1,1,0,0,0,1,1H43a1,1,0,0,0,1-1V44H54.184A2.993,2.993,0,1,0,58,40.184V25.8l2.021-2.021a1,1,0,0,0,0-1.414l-1.949-1.948c.062-.139.119-.277.174-.416H61a1,1,0,0,0,1-1V13A1,1,0,0,0,61,12ZM20,28V22H46v6ZM42,44H25V42h6a1,1,0,0,0,1-1V38h2v3a1,1,0,0,0,1,1h7Zm15,0a1,1,0,1,1,1-1A1,1,0,0,1,57,44Z"/><path d="M50.4,19.18A1,1,0,1,0,51.6,20.775a5.955,5.955,0,0,0,0-9.55,1,1,0,1,0-1.206,1.6,3.956,3.956,0,0,1,0,6.36Z"/></g></g></svg>
